<svg width="240" height="36" viewBox="0 0 240 36" fill="none" xmlns="http://www.w3.org/2000/svg">
<g clip-path="url(#clip0_3534_124294)">
<path d="M43.3377 12.8555C43.3377 6.81574 38.6283 1.90625 32.8359 1.90625H29.3392H26.8668H24.9595V23.7929H26.9609H31.6938C31.7292 23.4986 31.7409 23.216 31.7409 22.9217C31.7409 21.9563 31.5526 21.0262 31.1876 20.155C31.1405 20.0608 31.1052 19.9548 31.0581 19.8606H29.3274V5.85033H32.0588C35.8027 5.85033 38.8403 8.98204 38.8403 12.8555C38.8403 15.0689 37.8513 17.035 36.2972 18.3183C36.8741 19.7429 37.1802 21.2499 37.192 22.804C40.83 21.0733 43.3377 17.2705 43.3377 12.8555Z" fill="#007BC7"/>
<path d="M49.4717 1.90625H45.092V23.7929H49.4717V1.90625Z" fill="#007BC7"/>
<path d="M67.8616 1.90625H51.2258V5.85033H57.348V23.7929H61.7277V5.85033H67.8616V1.90625Z" fill="#007BC7"/>
<path d="M29.7748 12.1255V17.3764C31.2465 18.7422 32.1766 20.7201 32.1766 22.9217C32.1766 27.0306 28.9389 30.3625 24.9595 30.3625C20.9684 30.3625 17.7307 27.0306 17.7307 22.9217C17.7307 18.9659 20.7329 15.7282 24.5121 15.4927V11.113C19.8028 11.2896 15.7999 14.2094 14.0574 18.3301L8.10007 12.6318L18.39 1.90625H12.4798L4.37969 10.4419V1.90625H0V23.7929H4.37969V14.8216L13.1744 23.8282C13.6453 29.9269 18.7432 34.7422 24.9595 34.7422C31.482 34.7422 36.78 29.4559 36.78 22.9217C36.78 18.1064 33.8955 13.9622 29.7748 12.1255Z" fill="#8FC31F"/>
<path d="M99.9204 1.60156H95.9175V23.241H99.9204V1.60156Z" fill="#787B7D"/>
<path d="M142.775 20.0349V28.3352H132.78V32.0673H157.633V28.3352H146.873V20.0349H155.632V2.39844H151.617V7.20197H138.796V2.39844H134.793V20.0349H142.775ZM138.796 10.8988H151.617V16.3146H138.796V10.8988Z" fill="#787B7D"/>
<path d="M100.156 33.669V29.9369H84.6856V21.6484H80.6826V33.669H100.156Z" fill="#787B7D"/>
<path d="M124.362 12.103C126.41 10.9492 127.564 9.17145 127.564 6.81678C127.564 2.38999 123.467 0 117.145 0C110.822 0 106.725 2.38999 106.725 6.81678C106.725 9.17145 107.891 10.9492 109.928 12.103V15.9529H104.512V19.638H129.754V15.9529H124.35V12.103H124.362ZM117.145 3.59088C120.971 3.59088 123.444 4.72112 123.444 6.81678C123.444 8.91244 120.971 10.0427 117.145 10.0427C113.33 10.0427 110.858 8.91244 110.858 6.81678C110.87 4.72112 113.33 3.59088 117.145 3.59088ZM113.942 13.3981C114.931 13.5511 116.003 13.6336 117.145 13.6336C118.287 13.6336 119.358 13.5511 120.347 13.3981V15.9529H113.942V13.3981Z" fill="#787B7D"/>
<path d="M90.2427 19.6954L93.6687 17.2347C93.6687 17.2347 86.8991 10.1825 86.2986 2H86.1338H82.6018H82.4487C81.8483 10.1825 75.0786 17.2347 75.0786 17.2347L78.5047 19.6954C78.5047 19.6954 82.1073 15.9514 84.3796 10.0059C86.6401 15.9514 90.2427 19.6954 90.2427 19.6954Z" fill="#787B7D"/>
<path d="M216.959 33.6689H237.798V20.8359H216.959V33.6689ZM233.784 29.9367H220.951V24.5681H233.784V29.9367Z" fill="#787B7D"/>
<path d="M117.145 21.2422C110.458 21.2422 106.125 23.7028 106.125 28.2591C106.125 32.8154 110.458 35.276 117.145 35.276C123.844 35.276 128.165 32.8154 128.165 28.2591C128.177 23.7146 123.844 21.2422 117.145 21.2422ZM117.145 31.7323C112.965 31.7323 110.257 30.5196 110.257 28.2591C110.257 26.0104 112.965 24.7977 117.145 24.7977C121.336 24.7977 124.044 26.0104 124.044 28.2591C124.044 30.5078 121.336 31.7323 117.145 31.7323Z" fill="#787B7D"/>
<path d="M185.89 15.9531H160.636V19.6382H185.89V15.9531Z" fill="#787B7D"/>
<path d="M173.268 21.2422C166.569 21.2422 162.249 23.7028 162.249 28.2591C162.249 32.8154 166.569 35.276 173.268 35.276C179.956 35.276 184.288 32.8154 184.288 28.2591C184.288 23.7146 179.956 21.2422 173.268 21.2422ZM173.268 31.7323C169.077 31.7323 166.369 30.5196 166.369 28.2591C166.369 26.0104 169.077 24.7977 173.268 24.7977C177.46 24.7977 180.168 26.0104 180.168 28.2591C180.156 30.5078 177.448 31.7323 173.268 31.7323Z" fill="#787B7D"/>
<path d="M237.398 2H217.36V5.73216H233.395V7.73363C233.395 10.2296 233.089 12.5254 232.912 13.6203H214.746V17.3054H240V13.6203H236.727C236.962 12.4077 237.386 9.95879 237.386 7.73363V2H237.398Z" fill="#787B7D"/>
<path d="M161.601 11.1832L164.121 14.4327C164.121 14.4327 169.348 12.8197 173.257 8.68727C177.165 12.8315 182.393 14.4327 182.393 14.4327L184.912 11.1832C179.355 9.46431 176.541 6.47388 175.835 5.61442H183.547V2H162.943V5.60265H170.655C169.96 6.47388 167.158 9.46431 161.601 11.1832Z" fill="#787B7D"/>
<path d="M211.344 1.60156H207.329V34.0607H211.344V1.60156Z" fill="#787B7D"/>
<path d="M188.892 6.09912H199.111C198.499 16.2124 188.68 23.7592 187.408 24.701L190.493 27.4207C190.493 27.4207 203.726 18.6848 203.726 2.41406H188.892V6.09912Z" fill="#787B7D"/>
</g>
<defs>
<clipPath id="clip0_3534_124294">
<rect width="240" height="35.273" fill="white"/>
</clipPath>
</defs>
</svg>
