<svg width="206" height="42" viewBox="0 0 206 42" fill="none" xmlns="http://www.w3.org/2000/svg">
<g id="_&#229;&#175;&#131;&#226;&#145;&#184;&#226;&#148;&#129;_&#239;&#167;&#143;&#226;&#145;&#164;&#235;&#177;&#182;" clip-path="url(#clip0_2048_58697)">
<path id="Vector" d="M32.0337 20.0644C28.4289 17.6426 23.8132 18.6269 21.3821 22.2718C19.3652 25.3173 16.3078 25.6925 15.1292 25.6925C11.268 25.6925 8.6347 23.0125 7.85063 20.235C7.84076 20.2057 7.83583 20.1814 7.8309 20.157C7.82104 20.1229 7.81611 20.0937 7.80624 20.0644C7.5005 18.9047 7.4216 18.3541 7.4216 17.1212C7.4216 10.4942 14.3106 3.11184 24.2225 3.11184C34.1344 3.11184 40.1901 10.7476 41.6892 14.9967C41.6596 14.9187 41.6349 14.8456 41.6103 14.7725C38.7304 6.46922 30.7614 0.5 21.3772 0.5C9.57165 0.5 0 9.95329 0 21.6286C0 32.0613 7.61392 40.9835 18.1768 40.9835C26.5994 40.9835 32.2605 36.3202 34.8495 29.888C36.2746 26.3699 35.2686 22.2377 32.0337 20.0644Z" fill="#003763"/>
<path id="Vector_2" d="M41.8226 15.406C40.57 11.2641 34.7215 3.11182 24.2228 3.11182C14.3109 3.11182 7.42188 10.4942 7.42188 17.1212C7.42188 18.3492 7.50078 18.8998 7.80652 20.0644C7.6783 19.5576 7.6142 19.0508 7.6142 18.5587C7.6142 11.6539 14.6117 6.86877 21.8015 6.86877C31.5408 6.86877 39.4309 14.6702 39.4309 24.2891C39.4309 31.8274 35.0371 38.357 28.661 41.4951C36.8864 38.5568 42.7595 30.77 42.7595 21.6286C42.7595 19.465 42.4637 17.5549 41.8226 15.4108V15.406Z" fill="#E4022D"/>
<path id="Vector_3" d="M61.3997 23.5437V22.2816H52.9277V20.0255H72.574V22.2816H64.0774V23.5437C64.324 23.6168 64.5952 23.6899 64.8368 23.7873C65.473 24.0553 66.0401 24.3916 66.5332 24.8301C67.0263 25.293 67.4159 25.7998 67.7118 26.3846C67.983 26.9937 68.1309 27.6223 68.1309 28.3045C68.1309 28.9867 67.983 29.6152 67.7118 30.1951C67.4159 30.7993 67.0214 31.3354 66.5332 31.769C66.0401 32.2076 65.4779 32.5682 64.8368 32.8118C64.176 33.0798 63.4856 33.2017 62.7509 33.2017C62.0161 33.2017 61.3011 33.0798 60.6649 32.8118C60.0041 32.5682 59.437 32.2027 58.9686 31.769C58.4804 31.3354 58.0859 30.7993 57.8146 30.1951C57.5188 29.6104 57.3708 28.9818 57.3708 28.3045C57.3708 27.6271 57.5188 26.9937 57.8146 26.3846C58.0859 25.7998 58.4804 25.293 58.9686 24.8301C59.437 24.3916 59.9992 24.0553 60.6649 23.7873C60.9115 23.6899 61.1581 23.6168 61.3997 23.5437ZM71.1982 13.6177H63.9788L71.5927 17.6232L70.3895 19.5626L62.7509 15.5328L55.1123 19.5626L53.9091 17.6232L61.523 13.6177H54.3036V11.386H71.1982V13.6177ZM65.5025 28.3045C65.5025 27.5784 65.2313 26.9449 64.6938 26.4138C64.1267 25.9021 63.4906 25.6341 62.7509 25.6341C62.0112 25.6341 61.375 25.9021 60.8375 26.4138C60.2704 26.9449 60.0041 27.5784 60.0041 28.3045C60.0041 29.0305 60.2754 29.664 60.8375 30.1707C61.38 30.7019 62.0161 30.9699 62.7509 30.9699C63.4856 30.9699 64.1267 30.7019 64.6938 30.1707C65.2363 29.6591 65.5025 29.0305 65.5025 28.3045Z" fill="#555555"/>
<path id="Vector_4" d="M83.3099 28.3725V22.3059H85.9876V28.3725H94.4842V30.7017H74.8379V28.3725H83.3099ZM84.661 15.4888L77.5402 24.2988L75.479 22.7688L84.666 11.4346L93.853 22.7688L91.7917 24.2988L84.6709 15.4888H84.661Z" fill="#555555"/>
<path id="Vector_5" d="M106.865 22.7932H97.6094V11.5808H100.139V14.6166H104.39V11.5808H106.87V22.7932H106.865ZM98.5167 31.847V24.7862H101.17V29.5177H116.422V31.847H98.5167ZM104.385 16.8727H100.134V20.5371H104.385V16.8727ZM109.592 11.1423H112.098V24.5377H109.592V18.0812H107.359V15.7764H109.592V11.1423ZM113.666 11.1228H116.22V24.6644H113.666V11.1228Z" fill="#555555"/>
<path id="Vector_6" d="M124.524 13.3545V11.0984H127.375V13.3545H132.483V15.6106H127.054L132.922 28.5919L130.713 29.5615L125.949 18.8364L121.235 29.7321L118.977 28.738L124.845 15.6106H119.194V13.3545H124.524ZM135.723 21.8479H131.596V19.5186H135.723V11.1228H138.376V32.2611H135.723V21.8527V21.8479Z" fill="#555555"/>
<path id="Vector_7" d="M152.283 29.4885H149.63V14.7823H141.43V12.4287H152.283V29.4885ZM157.634 11.1228H160.287V32.2611H157.634V11.1228Z" fill="#555555"/>
<path id="Vector_8" d="M175.959 16.6535C175.959 17.4039 175.811 18.1104 175.52 18.739C175.2 19.3969 174.786 19.9524 174.268 20.4397C173.755 20.9221 173.163 21.3119 172.473 21.5799C171.763 21.8723 171.023 22.0185 170.239 22.0185C169.455 22.0185 168.715 21.8723 168.03 21.5799C167.32 21.3119 166.703 20.9221 166.21 20.4397C165.668 19.9524 165.278 19.3969 164.982 18.739C164.662 18.1104 164.514 17.4039 164.514 16.6535C164.514 15.9031 164.662 15.2209 164.982 14.5435C165.278 13.9149 165.668 13.3302 166.21 12.8429C166.703 12.3556 167.315 11.9707 168.03 11.6783C168.72 11.4103 169.455 11.2641 170.239 11.2641C171.023 11.2641 171.763 11.4103 172.473 11.6783C173.158 11.9707 173.75 12.3556 174.268 12.8429C174.786 13.3302 175.2 13.9101 175.52 14.5435C175.816 15.2257 175.959 15.9274 175.959 16.6535ZM165.939 22.9151H168.543V24.9032H180.087V22.9151H182.69V31.847H165.944V22.9151H165.939ZM173.405 16.6535C173.405 15.8056 173.084 15.0747 172.497 14.4461C171.861 13.837 171.122 13.5251 170.264 13.5251C169.406 13.5251 168.641 13.8418 168.03 14.4461C167.394 15.0795 167.098 15.8056 167.098 16.6535C167.098 17.5013 167.394 18.2566 168.03 18.8365C168.646 19.47 169.381 19.7575 170.264 19.7575C171.146 19.7575 171.861 19.4651 172.497 18.8365C173.084 18.2518 173.405 17.5257 173.405 16.6535ZM180.087 27.0375H168.543V29.6591H180.087V27.0375ZM176.65 15.5132H180.037V11.1228H182.69V22.3108H180.037V17.8229H176.65V15.5181V15.5132Z" fill="#555555"/>
<path id="Vector_9" d="M186.354 24.4939H206V26.8231H197.503V32.2563H194.825V26.8231H186.354V24.4939ZM190.55 14.1537H201.798V11.4834H204.427V21.653H187.922V11.4834H190.55V14.1537ZM201.798 16.4342H190.55V19.3481H201.798V16.4342Z" fill="#555555"/>
</g>
<defs>
<clipPath id="clip0_2048_58697">
<rect width="206" height="41" fill="white" transform="translate(0 0.5)"/>
</clipPath>
</defs>
</svg>
