<svg width="202" height="23" viewBox="0 0 202 23" fill="none" xmlns="http://www.w3.org/2000/svg">
<path d="M113.545 14.4551H114.351V16.1818L115.802 14.4551H116.789L115.14 16.3472L116.861 18.4711H115.807L114.362 16.6065H114.351V18.4711H113.545V14.4551Z" fill="#003994"/>
<path d="M118.351 15.4368C119.234 15.4368 119.907 16.0326 119.907 17.009C119.907 17.864 119.339 18.5426 118.351 18.5426C117.375 18.5426 116.801 17.864 116.801 17.009C116.801 16.0326 117.474 15.4368 118.351 15.4368ZM118.351 17.9413C118.947 17.9413 119.102 17.4117 119.102 16.9152C119.102 16.4573 118.859 16.0326 118.351 16.0326C117.849 16.0326 117.606 16.4684 117.606 16.9152C117.606 17.4062 117.766 17.9413 118.351 17.9413Z" fill="#003994"/>
<path d="M120.419 15.5085H121.103V16.1815H121.114C121.147 15.9057 121.467 15.4368 121.925 15.4368C122.002 15.4368 122.195 15.4644 122.295 15.5195V16.2532C122.223 16.2146 122.063 16.1705 121.925 16.1705C121.296 16.1705 121.186 16.9538 121.186 17.3786V18.4653H120.413V15.5085H120.419Z" fill="#003994"/>
<path d="M125.122 18.3054C124.841 18.4598 124.515 18.5426 124.101 18.5426C123.119 18.5426 122.551 17.9799 122.551 17.0035C122.551 16.1429 123.003 15.4368 123.925 15.4368C125.023 15.4368 125.337 16.1925 125.337 17.2296H123.285C123.318 17.7096 123.654 17.9799 124.129 17.9799C124.504 17.9799 124.824 17.842 125.117 17.682V18.3054H125.122ZM124.603 16.7001C124.581 16.3249 124.405 16.005 123.974 16.005C123.544 16.005 123.323 16.3029 123.29 16.7001H124.603Z" fill="#003994"/>
<path d="M126.031 15.6629C126.329 15.525 126.732 15.4368 127.063 15.4368C127.968 15.4368 128.343 15.8119 128.343 16.689V17.0697C128.343 17.3676 128.349 17.5937 128.354 17.8144C128.36 18.0406 128.371 18.2447 128.387 18.4764H127.708C127.681 18.3219 127.681 18.1233 127.675 18.0351H127.664C127.488 18.3605 127.101 18.5481 126.748 18.5481C126.224 18.5481 125.711 18.2337 125.711 17.6654C125.711 17.2241 125.926 16.9648 126.219 16.8214C126.511 16.678 126.892 16.6504 127.217 16.6504H127.642C127.642 16.1705 127.427 16.0105 126.975 16.0105C126.649 16.0105 126.318 16.1374 126.059 16.3304L126.031 15.6629ZM126.936 17.9799C127.173 17.9799 127.355 17.8751 127.477 17.7151C127.604 17.5496 127.637 17.3345 127.637 17.1028H127.306C126.958 17.1028 126.445 17.1579 126.445 17.6158C126.445 17.8696 126.66 17.9799 126.936 17.9799Z" fill="#003994"/>
<path d="M132.808 15.1934C132.554 15.083 132.272 15.0223 131.991 15.0223C131.715 15.0223 131.356 15.1437 131.356 15.5795C131.356 16.2746 133.122 15.9822 133.122 17.3283C133.122 18.2109 132.427 18.5419 131.61 18.5419C131.174 18.5419 130.777 18.4702 130.44 18.2992L130.545 17.6096C130.805 17.8303 131.246 17.913 131.566 17.913C131.87 17.913 132.278 17.7585 132.278 17.3945C132.278 16.6277 130.518 16.9476 130.518 15.6126C130.518 14.7134 131.213 14.3879 131.925 14.3879C132.272 14.3879 132.592 14.4321 132.885 14.5314L132.808 15.1934Z" fill="#003994"/>
<path d="M133.77 14.4551H135.061L136.015 17.5002H136.026L136.981 14.4551H138.272V18.4711H137.5V15.1557H137.489L136.407 18.4711H135.635L134.553 15.1557L134.542 15.1667V18.4711H133.77V14.4551Z" fill="#003994"/>
<path d="M139.12 14.4551H141.493V15.084H139.926V16.0769H141.36V16.7113H139.926V17.8367H141.504V18.4711H139.12V14.4551Z" fill="#003994"/>
<path d="M143.932 16.1305C143.694 16.0478 143.523 16.0037 143.242 16.0037C143.032 16.0037 142.784 16.0809 142.784 16.3291C142.784 16.8035 144.125 16.5001 144.125 17.5703C144.125 18.2599 143.507 18.5357 142.878 18.5357C142.585 18.5357 142.287 18.4861 142 18.4089L142.044 17.7745C142.287 17.8958 142.541 17.9731 142.806 17.9731C142.999 17.9731 143.314 17.8958 143.314 17.609C143.314 17.0297 141.973 17.4269 141.973 16.3512C141.973 15.7113 142.53 15.4299 143.137 15.4299C143.501 15.4299 143.738 15.4851 143.976 15.5403L143.932 16.1305Z" fill="#003994"/>
<path d="M179.292 16.1305C179.055 16.0478 178.884 16.0037 178.602 16.0037C178.392 16.0037 178.144 16.0809 178.144 16.3291C178.144 16.8035 179.485 16.5001 179.485 17.5703C179.485 18.2599 178.867 18.5357 178.238 18.5357C177.946 18.5357 177.648 18.4861 177.361 18.4089L177.405 17.7745C177.648 17.8958 177.901 17.9731 178.166 17.9731C178.359 17.9731 178.674 17.8958 178.674 17.609C178.674 17.0297 177.333 17.4269 177.333 16.3512C177.333 15.7113 177.89 15.4299 178.497 15.4299C178.861 15.4299 179.099 15.4851 179.342 15.5403L179.292 16.1305Z" fill="#003994"/>
<path d="M159.608 15.1903C159.354 15.08 159.073 15.0193 158.791 15.0193C158.515 15.0193 158.157 15.1407 158.157 15.5765C158.157 16.2716 159.917 15.9792 159.917 17.3252C159.917 18.2079 159.222 18.5389 158.405 18.5389C157.969 18.5389 157.771 18.4782 157.373 18.3844L157.45 17.6562C157.726 17.8052 158.046 17.9045 158.361 17.9045C158.664 17.9045 159.078 17.75 159.078 17.3859C159.078 16.6191 157.312 16.9391 157.312 15.6041C157.312 14.7049 158.008 14.3794 158.72 14.3794C159.067 14.3794 159.387 14.4235 159.68 14.5228L159.608 15.1903Z" fill="#003994"/>
<path d="M160.686 16.0732H160.117V15.5105H160.686V14.9147L161.458 14.6665V15.505H162.142V16.0677H161.458V17.4524C161.458 17.7061 161.524 17.9433 161.822 17.9433C161.96 17.9433 162.093 17.9157 162.175 17.8606L162.197 18.4729C162.037 18.517 161.855 18.5391 161.629 18.5391C161.022 18.5391 160.691 18.164 160.691 17.5792V16.0732H160.686Z" fill="#003994"/>
<path d="M162.832 15.6629C163.13 15.525 163.533 15.4368 163.864 15.4368C164.769 15.4368 165.144 15.8119 165.144 16.689V17.0697C165.144 17.3676 165.149 17.5937 165.155 17.8144C165.16 18.0406 165.171 18.2447 165.188 18.4764H164.509C164.482 18.3219 164.482 18.1233 164.476 18.0351H164.465C164.288 18.3605 163.902 18.5481 163.549 18.5481C163.025 18.5481 162.512 18.2337 162.512 17.6654C162.512 17.2241 162.727 16.9648 163.019 16.8214C163.312 16.678 163.693 16.6504 164.018 16.6504H164.443C164.443 16.1705 164.233 16.0105 163.775 16.0105C163.45 16.0105 163.119 16.1374 162.859 16.3304L162.832 15.6629ZM163.737 17.9799C163.974 17.9799 164.156 17.8751 164.277 17.7151C164.404 17.5496 164.437 17.3345 164.437 17.1028H164.106C163.764 17.1028 163.251 17.1579 163.251 17.6158C163.251 17.8696 163.461 17.9799 163.737 17.9799Z" fill="#003994"/>
<path d="M146.426 15.6629C146.723 15.525 147.126 15.4368 147.457 15.4368C148.362 15.4368 148.738 15.8119 148.738 16.689V17.0697C148.738 17.3676 148.743 17.5937 148.749 17.8144C148.754 18.0406 148.765 18.2447 148.782 18.4764H148.103C148.075 18.3219 148.075 18.1233 148.07 18.0351H148.059C147.882 18.3605 147.496 18.5481 147.143 18.5481C146.619 18.5481 146.105 18.2337 146.105 17.6654C146.105 17.2241 146.321 16.9648 146.613 16.8214C146.906 16.678 147.286 16.6504 147.612 16.6504H148.037C148.037 16.1705 147.822 16.0105 147.369 16.0105C147.044 16.0105 146.712 16.1374 146.453 16.3304L146.426 15.6629ZM147.33 17.9799C147.568 17.9799 147.75 17.8751 147.871 17.7151C147.998 17.5496 148.031 17.3345 148.031 17.1028H147.695C147.347 17.1028 146.839 17.1579 146.839 17.6158C146.839 17.8696 147.055 17.9799 147.33 17.9799Z" fill="#003994"/>
<path d="M165.711 15.5085H166.395V16.1815H166.406C166.439 15.9057 166.759 15.4368 167.217 15.4368C167.289 15.4368 167.372 15.4368 167.454 15.4588V16.1925C167.383 16.176 167.245 16.1649 167.107 16.176C166.456 16.2146 166.478 16.9593 166.478 17.3841V18.4709H165.705V15.5085H165.711Z" fill="#003994"/>
<path d="M168.403 16.0732H167.835V15.5105H168.403V14.9147L169.176 14.6665V15.505H169.86V16.0677H169.176V17.4524C169.176 17.7061 169.242 17.9433 169.54 17.9433C169.678 17.9433 169.81 17.9157 169.893 17.8606L169.915 18.4729C169.755 18.517 169.573 18.5391 169.347 18.5391C168.74 18.5391 168.409 18.164 168.409 17.5792V16.0732H168.403Z" fill="#003994"/>
<path d="M173.25 18.4731H172.516V18.0704H172.505C172.268 18.3573 171.937 18.5448 171.534 18.5448C170.833 18.5448 170.524 18.0483 170.524 17.3808V15.5107H171.297V17.094C171.297 17.4581 171.302 17.949 171.799 17.949C172.356 17.949 172.478 17.3422 172.478 16.9616V15.5107H173.25V18.4731Z" fill="#003994"/>
<path d="M173.955 15.5085H174.694V15.9277H174.705C174.876 15.6409 175.169 15.4368 175.627 15.4368C176.537 15.4368 176.868 16.165 176.868 16.9814C176.868 17.7923 176.532 18.5426 175.605 18.5426C175.279 18.5426 175.009 18.4598 174.733 18.1344H174.722V19.6845H173.949V15.5085H173.955ZM174.733 16.9814C174.733 17.4007 174.898 17.9413 175.411 17.9413C175.919 17.9413 176.063 17.3896 176.063 16.9814C176.063 16.5842 175.925 16.0381 175.423 16.0381C174.926 16.0381 174.733 16.5677 174.733 16.9814Z" fill="#003994"/>
<path d="M155.248 18.4729H154.509V18.0536H154.498C154.327 18.3405 154.035 18.5446 153.577 18.5446C152.666 18.5446 152.335 17.8219 152.335 17C152.335 16.189 152.672 15.4388 153.599 15.4388C153.924 15.4388 154.195 15.5215 154.47 15.847H154.481V14.2969H155.254V18.4729H155.248ZM154.443 16.9889C154.443 16.5752 154.277 16.0456 153.775 16.0456C153.279 16.0456 153.141 16.5862 153.141 16.9889C153.141 17.3751 153.279 17.9102 153.764 17.9102C154.25 17.9157 154.443 17.3972 154.443 16.9889Z" fill="#003994"/>
<path d="M182.317 14.4551H183.227L184.805 18.4766H183.911L183.564 17.5554H181.931L181.577 18.4766H180.744L182.317 14.4551ZM182.764 15.2605H182.753L182.173 16.921H183.349L182.764 15.2605Z" fill="#003994"/>
<path d="M187.894 15.5116V18.1872C187.894 18.9926 187.574 19.7538 186.327 19.7538C186.023 19.7538 185.67 19.7097 185.301 19.5553L185.361 18.8988C185.598 19.0257 185.985 19.1581 186.228 19.1581C187.077 19.1581 187.121 18.5181 187.121 18.0051H187.11C186.967 18.2589 186.619 18.4795 186.189 18.4795C185.312 18.4795 184.98 17.7789 184.98 16.9845C184.98 16.2729 185.35 15.4454 186.239 15.4454C186.63 15.4454 186.934 15.5778 187.149 15.9199H187.16V15.5172H187.894V15.5116ZM187.121 16.9625C187.121 16.455 186.928 16.0412 186.476 16.0412C185.952 16.0412 185.786 16.5267 185.786 16.979C185.786 17.3817 186.001 17.8782 186.443 17.8782C186.928 17.8782 187.121 17.4535 187.121 16.9625Z" fill="#003994"/>
<path d="M190.983 18.3054C190.702 18.4598 190.377 18.5426 189.963 18.5426C188.98 18.5426 188.412 17.9799 188.412 17.0035C188.412 16.1429 188.87 15.4368 189.792 15.4368C190.89 15.4368 191.204 16.1925 191.204 17.2296H189.152C189.185 17.7096 189.521 17.9799 190.001 17.9799C190.376 17.9799 190.697 17.842 190.989 17.682V18.3054H190.983ZM190.465 16.7001C190.443 16.3249 190.266 15.9995 189.836 15.9995C189.405 15.9995 189.185 16.2973 189.152 16.6945H190.465V16.7001Z" fill="#003994"/>
<path d="M191.717 15.5085H192.451V15.9112H192.462C192.705 15.5692 193.03 15.4368 193.433 15.4368C194.134 15.4368 194.443 15.9333 194.443 16.6008V18.4709H193.67V16.8876C193.67 16.5235 193.665 16.0381 193.168 16.0381C192.611 16.0381 192.489 16.6449 192.489 17.0255V18.4764H191.717V15.5085Z" fill="#003994"/>
<path d="M149.223 15.5085H149.957V15.9112H149.968C150.21 15.5692 150.536 15.4368 150.939 15.4368C151.64 15.4368 151.949 15.9333 151.949 16.6008V18.4709H151.176V16.8876C151.176 16.5235 151.171 16.0381 150.674 16.0381C150.117 16.0381 149.995 16.6449 149.995 17.0255V18.4764H149.223V15.5085Z" fill="#003994"/>
<path d="M196.922 16.1467C196.784 16.0805 196.635 16.0364 196.398 16.0364C195.918 16.0364 195.614 16.417 195.614 16.9742C195.614 17.5203 195.874 17.9396 196.414 17.9396C196.635 17.9396 196.872 17.8568 197.01 17.8017L197.043 18.4416C196.817 18.5078 196.585 18.5409 196.271 18.5409C195.3 18.5409 194.809 17.8789 194.809 16.9742C194.809 16.1191 195.316 15.4351 196.243 15.4351C196.552 15.4351 196.779 15.4682 196.994 15.5344L196.922 16.1467Z" fill="#003994"/>
<path d="M198.858 17.674H198.869L199.581 15.506H200.365L199.255 18.4463C199.007 19.1028 198.831 19.7482 198.025 19.7482C197.843 19.7482 197.655 19.7206 197.479 19.6655L197.528 19.0973C197.628 19.1304 197.738 19.1469 197.926 19.1469C198.235 19.1469 198.428 18.9318 198.428 18.6173L197.291 15.5005H198.141L198.858 17.674Z" fill="#003994"/>
<path d="M82.0296 18.8123V9.73758L76.6662 18.5751H72.9912L67.6167 9.73758V18.8123H63.4727V3.18945H67.8539L74.9335 14.7135L82.0296 3.18945H86.2895V18.8123H82.0296Z" fill="#003994"/>
<path d="M56.2418 8.964H47.9097C47.5621 8.964 47.2531 8.84263 46.9937 8.60542C46.773 8.35718 46.6461 8.08687 46.635 7.78897C46.6461 7.4304 46.773 7.14354 46.9937 6.92288C47.231 6.68567 47.5124 6.5643 47.849 6.5643H60.5679V3.19922H47.391C45.8404 3.19922 44.632 3.64606 43.7271 4.55077C42.7835 5.47755 42.3145 6.58085 42.3145 7.87724C42.3145 9.19017 42.7835 10.3266 43.7271 11.2809C44.6706 12.2353 45.8956 12.7042 47.391 12.7042H56.1425C56.5288 12.7042 56.8378 12.8366 57.0971 13.1124C57.3565 13.3717 57.4889 13.6917 57.4889 14.0668C57.4889 14.4364 57.351 14.7619 57.0806 15.0322C56.8102 15.3025 56.4736 15.4404 56.0763 15.4404H43.1863V18.822H56.2418C57.7758 18.822 59.0284 18.3256 60.0051 17.3381C60.9708 16.3617 61.4563 15.1866 61.4563 13.8241C61.4563 12.5111 60.9708 11.3747 60.0051 10.3983C59.0671 9.4329 57.8145 8.964 56.2418 8.964Z" fill="#003994"/>
<path d="M107.15 6.55454V3.18945H89.9062V18.8123H107.15V15.4306H94.1551V12.6889H107.15V9.3128H94.1606V6.55454H107.15Z" fill="#003994"/>
<path d="M20.0763 16.6819C21.3013 18.734 24.6562 21.735 29.1699 21.9888C31.7137 22.1267 34.114 21.4812 36.0343 20.1076C39.0195 18.1106 40.7908 14.7566 40.5922 11.1433C40.3935 7.61268 37.2924 4.53445 34.1747 4.65582C32.3262 4.72753 30.7646 5.65431 29.8983 7.13274C31.1895 7.31478 32.9994 8.09261 33.5347 10.0565C34.0754 12.0535 32.5856 14.1277 30.9026 14.7235C30.8695 14.7842 30.9081 14.8669 30.9964 14.8559C33.4464 14.547 36.233 12.8644 35.6646 8.43464C36.3268 10.7681 35.8743 13.8133 34.0809 15.8158C32.8946 17.1452 31.035 18.072 28.5188 17.9176C28.3698 17.912 28.3091 18.1162 28.4912 18.1548C31.0847 18.7119 33.4077 17.9341 35.0521 16.7812C36.9503 15.4462 38.0153 13.2395 38.1698 10.9778C38.4677 14.4146 37.0386 17.5369 33.2698 19.4181C29.0209 21.5419 22.9788 19.7656 20.3412 16.5164C20.126 16.2626 19.9108 16.406 20.0763 16.6819Z" fill="#003994"/>
<path d="M39.4529 5.32638C38.2279 3.27423 34.8729 0.273236 30.3592 0.0194759C27.8154 -0.123954 25.4151 0.526997 23.4949 1.90061C20.5096 3.8976 18.7383 7.25165 18.937 10.865C19.1412 14.4949 22.2092 17.4738 25.3544 17.3469C27.2029 17.2752 28.7645 16.3484 29.6309 14.87C28.3396 14.6879 26.5297 13.9101 26 11.9462C25.4593 9.94923 26.9491 7.87502 28.6321 7.27923C28.6652 7.22407 28.6266 7.1358 28.5383 7.14683C26.0883 7.45024 23.3017 9.1383 23.8701 13.5681C23.2079 11.2346 23.6604 8.18946 25.4537 6.18696C26.6401 4.85747 28.4997 3.9307 31.0159 4.07964C31.1649 4.08516 31.2311 3.88105 31.0435 3.84243C28.4445 3.27975 26.1269 4.06309 24.4881 5.21605C22.5899 6.55105 21.5249 8.76318 21.3704 11.0194C21.078 7.58264 22.5071 4.46028 26.2759 2.57363C30.5303 0.449765 36.567 2.23161 39.2046 5.47533C39.4087 5.74564 39.6239 5.60221 39.4529 5.32638Z" fill="#E60021"/>
<path d="M9.65647 10.5209L19.8813 18.8123H13.8336L4.28196 11.365V18.8123H0V3.18945H4.28196V9.83687L13.0721 3.18945H18.9377L9.65647 10.5209Z" fill="#003994"/>
<path d="M9.65647 10.5209L19.8813 18.8123H13.8336L4.28196 11.365V18.8123H0V3.18945H4.28196V9.83687L13.0721 3.18945H18.9377L9.65647 10.5209Z" fill="#003994"/>
<path d="M187.344 5.30469H186.048V7.32925H183.377V8.09605H191.632V7.32925H187.344V5.30469Z" fill="#003994"/>
<path d="M199.681 5.32261V3.25391H198.379V9.41036H199.681V6.0894H201V5.32261H199.681Z" fill="#003994"/>
<path d="M148.515 4.16719H151.258V4.70229C151.258 5.9049 150.893 7.7419 148.443 8.63558V9.49616C151.865 8.56938 152.698 6.21382 152.698 4.94502V3.40039H148.51V4.16719H148.515Z" fill="#003994"/>
<path d="M197.052 7.91291V7.14612H194.745C194.271 7.14612 193.89 6.76548 193.89 6.29105V4.16719H197.046V3.40039H192.588V6.26899C192.588 7.17921 193.322 7.91291 194.232 7.91291H197.052Z" fill="#003994"/>
<path d="M189.306 5.7725C189.306 6.12004 189.196 6.44 189.014 6.70479H190.31C190.492 6.44 190.603 6.12004 190.603 5.7725V3.40039H184.152V4.16719H189.301V5.7725H189.306Z" fill="#003994"/>
<path d="M194.746 10.5087V9.14062H193.443V10.4811C193.443 11.3914 194.183 12.1251 195.088 12.1251H199.844V11.3583H195.595C195.132 11.3638 194.746 10.9776 194.746 10.5087Z" fill="#003994"/>
<path d="M187.504 8.35156C185.976 8.35156 184.734 9.29489 184.734 10.4644C184.734 11.6339 185.976 12.5772 187.504 12.5772C189.038 12.5772 190.274 11.6339 190.274 10.4644C190.274 9.30041 189.033 8.35156 187.504 8.35156ZM187.504 11.8159C186.693 11.8159 186.031 11.2146 186.031 10.4699C186.031 9.72518 186.693 9.12388 187.504 9.12388C188.316 9.12388 188.978 9.72518 188.978 10.4699C188.978 11.2091 188.316 11.8159 187.504 11.8159Z" fill="#003994"/>
<path d="M126.551 8.16797H125.254V10.4573H121.314V11.2241H130.491V10.4573H126.551V8.16797Z" fill="#003994"/>
<path d="M112.459 7.87031H116.183V8.41645C114.964 8.63711 114.059 9.47011 114.059 10.4686C114.059 11.6381 115.3 12.5814 116.829 12.5814C118.357 12.5814 119.599 11.6381 119.599 10.4686C119.599 9.47011 118.694 8.63711 117.474 8.41645V7.87031H121.199V7.10352H112.453V7.87031H112.459ZM118.302 10.4631C118.302 11.2078 117.64 11.8091 116.829 11.8091C116.018 11.8091 115.356 11.2078 115.356 10.4631C115.356 9.71835 116.018 9.11705 116.829 9.11705C117.646 9.11705 118.302 9.71835 118.302 10.4631Z" fill="#003994"/>
<path d="M182.885 7.32812H174.625V8.09492H182.885V7.32812Z" fill="#003994"/>
<path d="M178.751 8.35156C177.222 8.35156 175.98 9.29489 175.98 10.4644C175.98 11.6339 177.222 12.5772 178.751 12.5772C180.279 12.5772 181.521 11.6339 181.521 10.4644C181.526 9.30041 180.285 8.35156 178.751 8.35156ZM178.751 11.8159C177.939 11.8159 177.277 11.2146 177.277 10.4699C177.277 9.72518 177.934 9.12388 178.751 9.12388C179.562 9.12388 180.224 9.72518 180.224 10.4699C180.224 11.2091 179.567 11.8159 178.751 11.8159Z" fill="#003994"/>
<path d="M176.23 5.26284C176.23 6.26133 177.362 7.07226 178.752 7.07226C180.148 7.07226 181.274 6.26133 181.274 5.26284C181.274 4.87116 181.097 4.50707 180.805 4.2147H181.892V3.4479H179.403V2.92383H178.101V3.4479H175.441V4.2147H176.694C176.407 4.51259 176.23 4.87116 176.23 5.26284ZM178.752 6.31098C178.073 6.31098 177.527 5.82001 177.527 5.21871C177.527 4.6174 178.073 4.12643 178.752 4.12643C179.431 4.12643 179.977 4.6174 179.977 5.21871C179.977 5.82001 179.431 6.31098 178.752 6.31098Z" fill="#003994"/>
<path d="M173.303 3.25391H172.006V9.41036H173.303V3.25391Z" fill="#003994"/>
<path d="M163.197 4.82971H161.707C161.387 3.86432 160.438 3.1582 159.318 3.1582C157.933 3.1582 156.812 4.22841 156.812 5.54135C156.812 6.8598 157.933 7.93 159.318 7.93C160.686 7.93 161.79 6.88738 161.823 5.59651H163.197V8.10102H164.499V3.25198H163.197V4.82971ZM159.318 7.15769C158.65 7.15769 158.109 6.43502 158.109 5.54135C158.109 4.64767 158.65 3.925 159.318 3.925C159.985 3.925 160.526 4.64767 160.526 5.54135C160.526 6.43502 159.985 7.15769 159.318 7.15769Z" fill="#003994"/>
<path d="M168.376 10.5087V9.14062H167.074V10.4811C167.074 11.3914 167.808 12.1251 168.719 12.1251H173.475V11.3583H169.226C168.757 11.3638 168.376 10.9776 168.376 10.5087Z" fill="#003994"/>
<path d="M133.32 10.5087V9.14062H132.018V10.4811C132.018 11.3914 132.751 12.1251 133.662 12.1251H138.418V11.3583H134.17C133.701 11.3638 133.32 10.9776 133.32 10.5087Z" fill="#003994"/>
<path d="M163.195 9.6004H159.758V8.60742H158.461V10.483C158.461 11.3933 159.2 12.127 160.105 12.127H164.498V8.60742H163.195V9.6004ZM160.613 11.3602C160.144 11.3602 159.758 10.9795 159.758 10.5051V10.3672H163.195V11.3602H160.613Z" fill="#003994"/>
<path d="M168.406 6.14211C168.848 6.96407 169.648 7.80258 171.099 8.24942V7.39988C169.289 6.5393 169.107 5.06638 169.113 4.3713V4.16719H170.867V3.40039H165.962V4.16719H167.711V4.37682C167.711 5.06638 167.535 6.5393 165.725 7.40539V8.25494C167.159 7.80258 167.959 6.96959 168.406 6.14211Z" fill="#003994"/>
<path d="M116.825 5.07988C117.382 5.7198 118.392 6.44246 120.196 6.7569V5.89633C118.32 5.52672 117.68 4.53374 117.471 4.0207H120.053V3.25391H113.602V4.0207H116.185C115.975 4.53374 115.335 5.52672 113.459 5.89633V6.7569C115.263 6.44246 116.268 5.7198 116.825 5.07988Z" fill="#003994"/>
<path d="M155.63 3.25391H154.328V12.13H155.63V3.25391Z" fill="#003994"/>
<path d="M134.385 8.11397V5.80254H135.312V9.41036H136.471V3.25391H135.312V5.03575H134.385V3.40285H133.226V5.03575H131.858V3.40285H130.699V7.03273C130.699 7.62852 131.185 8.11397 131.781 8.11397H134.385ZM132.421 7.34717C132.112 7.34717 131.858 7.09341 131.858 6.78449V5.80254H133.226V7.34717H132.421Z" fill="#003994"/>
<path d="M138.247 3.25391H137.088V9.41036H138.247V3.25391Z" fill="#003994"/>
<path d="M145.934 5.38329H144.273V6.15009H145.934V12.13H147.231V3.25391H145.934V5.38329Z" fill="#003994"/>
<path d="M142.866 5.44688V4.69111H144.621V3.92432H142.866V3.14648H141.514V3.92432H139.71V4.69111H141.514V5.45239C141.514 6.01508 141.31 7.81899 139.473 8.66853V9.50153C140.802 9.10434 141.674 8.34857 142.188 7.49903C142.701 8.34857 143.573 9.10434 144.902 9.50153V8.66302C143.07 7.81347 142.866 6.01508 142.866 5.44688Z" fill="#003994"/>
<path d="M125.904 5.94351C126.6 7.14612 127.869 8.06186 129.469 8.49215V7.54331C127.615 6.83719 126.594 5.53529 126.6 3.75897V3.40039H125.209V3.75897C125.215 5.53529 124.194 6.83719 122.34 7.54331V8.49215C123.935 8.05634 125.204 7.14612 125.904 5.94351Z" fill="#003994"/>
</svg>
