<svg width="60" height="60" viewBox="0 0 60 60" fill="none" xmlns="http://www.w3.org/2000/svg">
  <!-- 전문가 그룹 - 졸업모자와 인증서 -->
  
  <!-- 졸업모자 -->
  <ellipse cx="30" cy="25" rx="22" ry="8" fill="#3AD2FF"/>
  <ellipse cx="30" cy="23" rx="22" ry="8" fill="#1FA2CC"/>
  <rect x="28" y="15" width="4" height="8" fill="#1FA2CC"/>
  
  <!-- 졸업모자 술 -->
  <circle cx="42" cy="23" r="2" fill="#3AD2FF"/>
  <line x1="42" y1="25" x2="47" y2="30" stroke="#3AD2FF" stroke-width="1.5"/>
  <line x1="47" y1="30" x2="45" y2="32" stroke="#3AD2FF" stroke-width="1.5"/>
  <line x1="47" y1="30" x2="49" y2="32" stroke="#3AD2FF" stroke-width="1.5"/>
  
  <!-- 인증서/자격증 -->
  <rect x="15" y="35" width="30" height="20" rx="2" fill="none" stroke="#3AD2FF" stroke-width="2"/>
  <rect x="17" y="37" width="26" height="16" rx="1" fill="#f8f9fa"/>
  
  <!-- 인증서 내용 -->
  <line x1="20" y1="42" x2="40" y2="42" stroke="#1FA2CC" stroke-width="1.5"/>
  <line x1="20" y1="46" x2="35" y2="46" stroke="#1FA2CC" stroke-width="1"/>
  <line x1="20" y1="49" x2="38" y2="49" stroke="#1FA2CC" stroke-width="1"/>
  
  <!-- 인증 도장 -->
  <circle cx="37" cy="47" r="4" fill="none" stroke="#3AD2FF" stroke-width="1.5"/>
  <path d="M 35 47 L 36.5 48.5 L 39 46" stroke="#3AD2FF" stroke-width="1.5" fill="none"/>
</svg>