<svg width="60" height="60" viewBox="0 0 60 60" fill="none" xmlns="http://www.w3.org/2000/svg">
  <!-- 맞춤형 전략 - 퍼즐 조각과 설정 기어 -->
  
  <!-- 퍼즐 조각들 -->
  <g transform="translate(10, 15)">
    <!-- 첫 번째 퍼즐 조각 -->
    <path d="M 0 0 L 15 0 C 17 0 17 4 15 4 C 17 4 17 8 15 8 L 8 8 C 8 10 4 10 4 8 L 4 15 C 4 17 0 17 0 15 Z" fill="#3AD2FF"/>
    
    <!-- 두 번째 퍼즐 조각 -->
    <path d="M 15 0 L 30 0 C 30 2 34 2 34 0 L 40 0 L 40 15 C 38 15 38 19 40 19 L 40 25 L 25 25 C 25 23 21 23 21 25 L 15 25 L 15 8 C 17 8 17 4 15 4 C 17 4 17 0 15 0 Z" fill="#1FA2CC"/>
  </g>
  
  <!-- 설정 기어 -->
  <g transform="translate(35, 35)">
    <!-- 외부 기어 톱니 -->
    <path d="M 12 2 L 14 2 L 15 0 L 17 0 L 18 2 L 20 2 L 22 4 L 22 6 L 24 7 L 24 9 L 22 10 L 22 12 L 20 14 L 18 14 L 17 16 L 15 16 L 14 14 L 12 14 L 10 12 L 10 10 L 8 9 L 8 7 L 10 6 L 10 4 Z" fill="#3AD2FF"/>
    
    <!-- 중앙 원 -->
    <circle cx="16" cy="8" r="4" fill="white"/>
    <circle cx="16" cy="8" r="2" fill="#1FA2CC"/>
  </g>
  
  <!-- 연결선/화살표 -->
  <path d="M 25 30 Q 35 25 40 35" stroke="#3AD2FF" stroke-width="2" fill="none" stroke-dasharray="3,3"/>
  <circle cx="25" cy="30" r="2" fill="#3AD2FF"/>
  
  <!-- 맞춤 아이콘 -->
  <g transform="translate(5, 45)">
    <rect x="0" y="0" width="12" height="8" rx="2" fill="none" stroke="#1FA2CC" stroke-width="1.5"/>
    <line x1="3" y1="3" x2="9" y2="3" stroke="#1FA2CC" stroke-width="1"/>
    <line x1="3" y1="5" x2="7" y2="5" stroke="#1FA2CC" stroke-width="1"/>
    <circle cx="10" cy="2" r="1" fill="#3AD2FF"/>
  </g>
</svg>