<svg width="60" height="60" viewBox="0 0 60 60" fill="none" xmlns="http://www.w3.org/2000/svg">
  <!-- 검증된 성과 - 트로피와 상승 차트 -->
  
  <!-- 트로피 컵 -->
  <path d="M 20 20 Q 20 15 25 15 L 35 15 Q 40 15 40 20 L 40 30 Q 40 35 35 35 L 25 35 Q 20 35 20 30 Z" fill="#3AD2FF"/>
  
  <!-- 트로피 손잡이 -->
  <path d="M 15 20 Q 12 20 12 25 Q 12 30 15 30" stroke="#1FA2CC" stroke-width="2" fill="none"/>
  <path d="M 45 20 Q 48 20 48 25 Q 48 30 45 30" stroke="#1FA2CC" stroke-width="2" fill="none"/>
  
  <!-- 트로피 받침대 -->
  <rect x="25" y="35" width="10" height="8" fill="#1FA2CC"/>
  <rect x="22" y="43" width="16" height="4" fill="#1FA2CC"/>
  
  <!-- 트로피 장식 -->
  <circle cx="30" cy="25" r="3" fill="#1FA2CC"/>
  <path d="M 28 23 L 30 26 L 32 22" stroke="white" stroke-width="1.5" fill="none"/>
  
  <!-- 상승 차트 -->
  <g transform="translate(8, 8)">
    <!-- 차트 선 -->
    <polyline points="5,25 10,22 15,18 20,12 25,8" stroke="#3AD2FF" stroke-width="2" fill="none"/>
    
    <!-- 데이터 포인트 -->
    <circle cx="5" cy="25" r="2" fill="#3AD2FF"/>
    <circle cx="10" cy="22" r="2" fill="#3AD2FF"/>
    <circle cx="15" cy="18" r="2" fill="#3AD2FF"/>
    <circle cx="20" cy="12" r="2" fill="#3AD2FF"/>
    <circle cx="25" cy="8" r="2" fill="#3AD2FF"/>
    
    <!-- 화살표 -->
    <path d="M 22 10 L 25 8 L 23 6" stroke="#3AD2FF" stroke-width="2" fill="none"/>
  </g>
</svg>