<svg xmlns="http://www.w3.org/2000/svg" viewBox="0 0 1920 400" preserveAspectRatio="none">
  <defs>
    <!-- Gradient definitions -->
    <linearGradient id="blueGradient" x1="0%" y1="0%" x2="100%" y2="100%">
      <stop offset="0%" style="stop-color:#007bff;stop-opacity:0.9" />
      <stop offset="100%" style="stop-color:#0056b3;stop-opacity:0.9" />
    </linearGradient>
    
    <!-- Pattern for texture -->
    <pattern id="dotPattern" x="0" y="0" width="40" height="40" patternUnits="userSpaceOnUse">
      <circle cx="2" cy="2" r="1" fill="white" opacity="0.1"/>
      <circle cx="22" cy="22" r="1" fill="white" opacity="0.1"/>
      <circle cx="2" cy="22" r="1" fill="white" opacity="0.05"/>
      <circle cx="22" cy="2" r="1" fill="white" opacity="0.05"/>
    </pattern>
    
    <!-- Geometric pattern -->
    <pattern id="geoPattern" x="0" y="0" width="100" height="100" patternUnits="userSpaceOnUse">
      <rect x="0" y="0" width="100" height="100" fill="none" stroke="white" stroke-width="0.5" opacity="0.05"/>
      <path d="M0,50 L50,0 L100,50 L50,100 Z" fill="none" stroke="white" stroke-width="0.5" opacity="0.05"/>
    </pattern>
  </defs>
  
  <!-- Background with gradient -->
  <rect width="1920" height="400" fill="url(#blueGradient)"/>
  
  <!-- Overlay patterns -->
  <rect width="1920" height="400" fill="url(#dotPattern)"/>
  <rect width="1920" height="400" fill="url(#geoPattern)"/>
  
  <!-- Abstract shapes for visual interest -->
  <g opacity="0.1">
    <!-- Left side decoration -->
    <path d="M0,200 Q200,100 400,200 T800,200" fill="none" stroke="white" stroke-width="2"/>
    <circle cx="100" cy="150" r="50" fill="none" stroke="white" stroke-width="1"/>
    
    <!-- Right side decoration -->
    <path d="M1920,200 Q1720,300 1520,200 T1120,200" fill="none" stroke="white" stroke-width="2"/>
    <circle cx="1820" cy="250" r="50" fill="none" stroke="white" stroke-width="1"/>
  </g>
  
  <!-- Document/Tech icons as SVG elements -->
  <g opacity="0.15" fill="white">
    <!-- Document icon -->
    <g transform="translate(150, 80)">
      <rect x="0" y="0" width="40" height="50" rx="2"/>
      <rect x="5" y="10" width="30" height="2"/>
      <rect x="5" y="18" width="30" height="2"/>
      <rect x="5" y="26" width="20" height="2"/>
    </g>
    
    <!-- Chart icon -->
    <g transform="translate(1750, 120)">
      <rect x="0" y="30" width="8" height="20"/>
      <rect x="12" y="20" width="8" height="30"/>
      <rect x="24" y="15" width="8" height="35"/>
      <rect x="36" y="25" width="8" height="25"/>
    </g>
    
    <!-- Shield icon (for security/compliance) -->
    <g transform="translate(900, 60)">
      <path d="M20,0 L40,10 L40,30 C40,45 30,55 20,55 C10,55 0,45 0,30 L0,10 Z"/>
    </g>
    
    <!-- Network/connection dots -->
    <circle cx="300" cy="300" r="3"/>
    <circle cx="350" cy="280" r="3"/>
    <circle cx="400" cy="320" r="3"/>
    <line x1="300" y1="300" x2="350" y2="280" stroke="white" stroke-width="1"/>
    <line x1="350" y1="280" x2="400" y2="320" stroke="white" stroke-width="1"/>
    
    <circle cx="1600" cy="100" r="3"/>
    <circle cx="1650" cy="120" r="3"/>
    <circle cx="1620" cy="160" r="3"/>
    <line x1="1600" y1="100" x2="1650" y2="120" stroke="white" stroke-width="1"/>
    <line x1="1650" y1="120" x2="1620" y2="160" stroke="white" stroke-width="1"/>
  </g>
</svg>